REM DIRINDEX 1\2,1\3,1\4,1\5
REM DIRNAME cjc005,folder01,folder02,folder03,folder04
TITLE ""
FILE "P1Q_t_0913-0922.mp3" MP3
  TRACK 01 AUDIO
    TITLE "3:cjc005_3644"
    INDEX 01 00:00:00
  TRACK 02 AUDIO
    TITLE "0:"
    INDEX 01 00:01:01
  TRACK 03 AUDIO
    TITLE "4:cjc005_3645"
    INDEX 01 00:01:24
  TRACK 04 AUDIO
    TITLE "0:"
    INDEX 01 00:02:63
  TRACK 05 AUDIO
    TITLE "5:cjc005_3646"
    INDEX 01 00:03:10
  TRACK 06 AUDIO
    TITLE "0:"
    INDEX 01 00:08:38
  TRACK 07 AUDIO
    TITLE "3:cjc005_3647"
    INDEX 01 00:09:22
  TRACK 08 AUDIO
    TITLE "0:"
    INDEX 01 00:10:39
  TRACK 09 AUDIO
    TITLE "4:cjc005_3648"
    INDEX 01 00:10:65
  TRACK 10 AUDIO
    TITLE "0:"
    INDEX 01 00:12:14
  TRACK 11 AUDIO
    TITLE "5:cjc005_3649"
    INDEX 01 00:12:42
  TRACK 12 AUDIO
    TITLE "0:"
    INDEX 01 00:16:06
  TRACK 13 AUDIO
    TITLE "3:cjc005_3650"
    INDEX 01 00:16:59
  TRACK 14 AUDIO
    TITLE "0:"
    INDEX 01 00:17:69
  TRACK 15 AUDIO
    TITLE "4:cjc005_3651"
    INDEX 01 00:18:19
  TRACK 16 AUDIO
    TITLE "0:"
    INDEX 01 00:19:50
  TRACK 17 AUDIO
    TITLE "5:cjc005_3652"
    INDEX 01 00:20:00
  TRACK 18 AUDIO
    TITLE "0:"
    INDEX 01 00:23:40
  TRACK 19 AUDIO
    TITLE "3:cjc005_3653"
    INDEX 01 00:24:18
  TRACK 20 AUDIO
    TITLE "0:"
    INDEX 01 00:25:27
  TRACK 21 AUDIO
    TITLE "4:cjc005_3654"
    INDEX 01 00:25:54
  TRACK 22 AUDIO
    TITLE "0:"
    INDEX 01 00:27:45
  TRACK 23 AUDIO
    TITLE "5:cjc005_3655"
    INDEX 01 00:27:71
  TRACK 24 AUDIO
    TITLE "0:"
    INDEX 01 00:31:18
  TRACK 25 AUDIO
    TITLE "3:cjc005_3656"
    INDEX 01 00:31:69
  TRACK 26 AUDIO
    TITLE "0:"
    INDEX 01 00:33:11
  TRACK 27 AUDIO
    TITLE "4:cjc005_3657"
    INDEX 01 00:33:42
  TRACK 28 AUDIO
    TITLE "0:"
    INDEX 01 00:35:15
  TRACK 29 AUDIO
    TITLE "5:cjc005_3658"
    INDEX 01 00:35:37
  TRACK 30 AUDIO
    TITLE "0:"
    INDEX 01 00:38:49
  TRACK 31 AUDIO
    TITLE "3:cjc005_3659"
    INDEX 01 00:39:21
  TRACK 32 AUDIO
    TITLE "0:"
    INDEX 01 00:40:46
  TRACK 33 AUDIO
    TITLE "4:cjc005_3660"
    INDEX 01 00:40:72
  TRACK 34 AUDIO
    TITLE "0:"
    INDEX 01 00:42:31
  TRACK 35 AUDIO
    TITLE "5:cjc005_3661"
    INDEX 01 00:42:53
  TRACK 36 AUDIO
    TITLE "0:"
    INDEX 01 00:46:27
  TRACK 37 AUDIO
    TITLE "3:cjc005_3662"
    INDEX 01 00:47:19
  TRACK 38 AUDIO
    TITLE "0:"
    INDEX 01 00:48:38
  TRACK 39 AUDIO
    TITLE "4:cjc005_3663"
    INDEX 01 00:48:63
  TRACK 40 AUDIO
    TITLE "0:"
    INDEX 01 00:50:19
  TRACK 41 AUDIO
    TITLE "5:cjc005_3664"
    INDEX 01 00:50:41
  TRACK 42 AUDIO
    TITLE "0:"
    INDEX 01 00:53:53
  TRACK 43 AUDIO
    TITLE "3:cjc005_3665"
    INDEX 01 00:54:32
  TRACK 44 AUDIO
    TITLE "0:"
    INDEX 01 00:55:57
  TRACK 45 AUDIO
    TITLE "4:cjc005_3666"
    INDEX 01 00:56:10
  TRACK 46 AUDIO
    TITLE "0:"
    INDEX 01 00:57:19
  TRACK 47 AUDIO
    TITLE "5:cjc005_3667"
    INDEX 01 00:57:48
  TRACK 48 AUDIO
    TITLE "0:"
    INDEX 01 01:01:50
  TRACK 49 AUDIO
    TITLE "3:cjc005_3668"
    INDEX 01 01:02:22
  TRACK 50 AUDIO
    TITLE "0:"
    INDEX 01 01:03:27
  TRACK 51 AUDIO
    TITLE "4:cjc005_3669"
    INDEX 01 01:03:55
  TRACK 52 AUDIO
    TITLE "0:"
    INDEX 01 01:04:66
  TRACK 53 AUDIO
    TITLE "5:cjc005_3670"
    INDEX 01 01:05:15
  TRACK 54 AUDIO
    TITLE "0:"
    INDEX 01 01:09:03
  TRACK 55 AUDIO
    TITLE "3:cjc005_3671"
    INDEX 01 01:09:57
  TRACK 56 AUDIO
    TITLE "0:"
    INDEX 01 01:10:61
  TRACK 57 AUDIO
    TITLE "4:cjc005_3672"
    INDEX 01 01:11:09
  TRACK 58 AUDIO
    TITLE "0:"
    INDEX 01 01:12:40
  TRACK 59 AUDIO
    TITLE "5:cjc005_3673"
    INDEX 01 01:12:62
  TRACK 60 AUDIO
    TITLE "0:"
    INDEX 01 01:18:68
